<svg id="visual" viewBox="0 0 900 600" width="900" height="600" xmlns="http://www.w3.org/2000/svg" xmlns:xlink="http://www.w3.org/1999/xlink" version="1.1"><rect x="0" y="0" width="900" height="600" fill="#002541"></rect><path d="M0 370L21.5 368.3C43 366.7 86 363.3 128.8 367.7C171.7 372 214.3 384 257.2 383.2C300 382.3 343 368.7 385.8 377.3C428.7 386 471.3 417 514.2 416.3C557 415.7 600 383.3 642.8 368.2C685.7 353 728.3 355 771.2 357.3C814 359.7 857 362.3 878.5 363.7L900 365L900 601L878.5 601C857 601 814 601 771.2 601C728.3 601 685.7 601 642.8 601C600 601 557 601 514.2 601C471.3 601 428.7 601 385.8 601C343 601 300 601 257.2 601C214.3 601 171.7 601 128.8 601C86 601 43 601 21.5 601L0 601Z" fill="#033154"></path><path d="M0 414L21.5 425C43 436 86 458 128.8 458C171.7 458 214.3 436 257.2 433.5C300 431 343 448 385.8 449.8C428.7 451.7 471.3 438.3 514.2 437.5C557 436.7 600 448.3 642.8 456.5C685.7 464.7 728.3 469.3 771.2 470.3C814 471.3 857 468.7 878.5 467.3L900 466L900 601L878.5 601C857 601 814 601 771.2 601C728.3 601 685.7 601 642.8 601C600 601 557 601 514.2 601C471.3 601 428.7 601 385.8 601C343 601 300 601 257.2 601C214.3 601 171.7 601 128.8 601C86 601 43 601 21.5 601L0 601Z" fill="#02375f"></path><path d="M0 470L21.5 468.3C43 466.7 86 463.3 128.8 461.8C171.7 460.3 214.3 460.7 257.2 460.3C300 460 343 459 385.8 465C428.7 471 471.3 484 514.2 491.8C557 499.7 600 502.3 642.8 498C685.7 493.7 728.3 482.3 771.2 477.7C814 473 857 475 878.5 476L900 477L900 601L878.5 601C857 601 814 601 771.2 601C728.3 601 685.7 601 642.8 601C600 601 557 601 514.2 601C471.3 601 428.7 601 385.8 601C343 601 300 601 257.2 601C214.3 601 171.7 601 128.8 601C86 601 43 601 21.5 601L0 601Z" fill="#023d6a"></path><path d="M0 490L21.5 490.7C43 491.3 86 492.7 128.8 498C171.7 503.3 214.3 512.7 257.2 517.2C300 521.7 343 521.3 385.8 518.8C428.7 516.3 471.3 511.7 514.2 505.7C557 499.7 600 492.3 642.8 493C685.7 493.7 728.3 502.3 771.2 504.2C814 506 857 501 878.5 498.5L900 496L900 601L878.5 601C857 601 814 601 771.2 601C728.3 601 685.7 601 642.8 601C600 601 557 601 514.2 601C471.3 601 428.7 601 385.8 601C343 601 300 601 257.2 601C214.3 601 171.7 601 128.8 601C86 601 43 601 21.5 601L0 601Z" fill="#024375"></path><path d="M0 546L21.5 543.7C43 541.3 86 536.7 128.8 533C171.7 529.3 214.3 526.7 257.2 533C300 539.3 343 554.7 385.8 561.7C428.7 568.7 471.3 567.3 514.2 562.2C557 557 600 548 642.8 541.3C685.7 534.7 728.3 530.3 771.2 533.2C814 536 857 546 878.5 551L900 556L900 601L878.5 601C857 601 814 601 771.2 601C728.3 601 685.7 601 642.8 601C600 601 557 601 514.2 601C471.3 601 428.7 601 385.8 601C343 601 300 601 257.2 601C214.3 601 171.7 601 128.8 601C86 601 43 601 21.5 601L0 601Z" fill="#034a81"></path></svg>